<svg width="76" height="25" viewBox="0 0 76 25" fill="none" xmlns="http://www.w3.org/2000/svg">
  <path d="M38.1 12.5C38.1 5.6 43.7 0 50.6 0H75.2V25H50.6C43.7 25 38.1 19.4 38.1 12.5Z" fill="#EA1D2C"/>
  <path d="M10.6 0H0V25H10.6V0Z" fill="#EA1D2C"/>
  <path d="M30.3 0C26.2 0 22.9 3.3 22.9 7.4V25H33.5V7.4C33.5 3.3 34.4 0 30.3 0Z" fill="#EA1D2C"/>
  <path d="M15.1 0H13.9C12.3 0 11 1.3 11 2.9V25H16.5V5.1C16.5 2.3 16.5 0 15.1 0Z" fill="#EA1D2C"/>
  <path d="M64.1 14.7C64.1 12.3 62.1 10.3 59.7 10.3C57.3 10.3 55.3 12.3 55.3 14.7C55.3 17.1 57.3 19.1 59.7 19.1C62.1 19.1 64.1 17.1 64.1 14.7Z" fill="white"/>
  <path d="M46.7 13.9V20.6H50.1V13.9C50.1 13.2 50.7 12.7 51.4 12.7H64.5C64.9 11.6 65.1 10.3 65.1 9.1V8.3H51.4C48.8 8.3 46.7 10.4 46.7 13.9Z" fill="white"/>
</svg> 