<svg width="114" height="34" viewBox="0 0 114 34" fill="none" xmlns="http://www.w3.org/2000/svg">
<path fill-rule="evenodd" clip-rule="evenodd" d="M27.043 30.2247H6.36306C4.60595 30.2247 3.18153 28.8003 3.18153 27.0432V6.36325C3.18153 4.60614 4.60595 3.18172 6.36306 3.18172H27.043C28.8001 3.18172 30.2245 4.60614 30.2245 6.36325V27.0432C30.2245 28.8003 28.8001 30.2247 27.043 30.2247ZM6.36306 33.4062C2.84884 33.4062 0 30.5574 0 27.0432V6.36325C0 2.84903 2.84884 0.000190735 6.36306 0.000190735H27.043C30.5572 0.000190735 33.4061 2.84903 33.4061 6.36325V27.0432C33.4061 30.5574 30.5572 33.4062 27.043 33.4062H6.36306Z" fill="#1C1C1C"/>
<path d="M17.7137 13.9425C17.7137 14.1082 17.848 14.2425 18.0137 14.2425H21.3184C21.5521 14.2425 21.6961 14.4979 21.5751 14.6978L16.8498 22.5055C16.7288 22.7055 16.8727 22.9609 17.1064 22.9609H26.8797C27.0454 22.9609 27.1797 22.8265 27.1797 22.6609V20.067C27.1797 19.9013 27.0454 19.767 26.8797 19.767H23.1025C22.8686 19.767 22.7247 19.5112 22.8461 19.3113L27.6918 11.3317C27.8132 11.1318 27.6693 10.876 27.4354 10.876H18.0137C17.848 10.876 17.7137 11.0103 17.7137 11.176V13.9425Z" fill="#1C1C1C"/>
<path d="M5.69727 13.9425C5.69727 14.1082 5.83158 14.2425 5.99727 14.2425H8.90578C9.07146 14.2425 9.20578 14.3768 9.20578 14.5425V22.6609C9.20578 22.8265 9.34009 22.9609 9.50578 22.9609H12.7651C12.9308 22.9609 13.0651 22.8265 13.0651 22.6609V14.5425C13.0651 14.3768 13.1995 14.2425 13.3651 14.2425H16.2737C16.4393 14.2425 16.5737 14.1082 16.5737 13.9425V11.176C16.5737 11.0103 16.4393 10.876 16.2737 10.876H5.99727C5.83158 10.876 5.69727 11.0103 5.69727 11.176V13.9425Z" fill="#1C1C1C"/>
<path d="M41.992 11.1178C41.8815 11.1178 41.792 11.0283 41.792 10.9178V8.09206C41.792 7.9816 41.8815 7.89206 41.992 7.89206H54.595C54.7054 7.89206 54.795 7.9816 54.795 8.09206V10.9178C54.795 11.0283 54.7054 11.1178 54.595 11.1178H50.2689C50.1584 11.1178 50.0689 11.2073 50.0689 11.3178V25.1961C50.0689 25.3065 49.9793 25.3961 49.8689 25.3961H46.6931C46.5826 25.3961 46.4931 25.3065 46.4931 25.1961V11.3178C46.4931 11.2073 46.4035 11.1178 46.2931 11.1178H41.992Z" fill="#1C1C1C"/>
<path d="M53.2606 19.6447C53.2606 18.4445 53.5357 17.3942 54.0858 16.494C54.6526 15.5938 55.4111 14.8937 56.3613 14.3935C57.3282 13.8934 58.4201 13.6434 59.6371 13.6434C60.854 13.6434 61.9376 13.8934 62.8878 14.3935C63.8547 14.8937 64.6132 15.5938 65.1633 16.494C65.7301 17.3942 66.0135 18.4445 66.0135 19.6447C66.0135 20.8283 65.7301 21.8786 65.1633 22.7955C64.6132 23.6957 63.8547 24.3958 62.8878 24.8959C61.9376 25.3961 60.854 25.6461 59.6371 25.6461C58.4201 25.6461 57.3282 25.3961 56.3613 24.8959C55.4111 24.3958 54.6526 23.6957 54.0858 22.7955C53.5357 21.8786 53.2606 20.8283 53.2606 19.6447ZM56.5614 19.6447C56.5614 20.2949 56.6947 20.87 56.9615 21.3701C57.2449 21.8536 57.62 22.237 58.0867 22.5204C58.5535 22.7871 59.0703 22.9205 59.6371 22.9205C60.2039 22.9205 60.7207 22.7871 61.1874 22.5204C61.6542 22.237 62.021 21.8536 62.2877 21.3701C62.5711 20.87 62.7128 20.2949 62.7128 19.6447C62.7128 18.9946 62.5711 18.4195 62.2877 17.9193C62.021 17.4192 61.6542 17.0358 61.1874 16.7691C60.7207 16.5024 60.2039 16.369 59.6371 16.369C59.0703 16.369 58.5535 16.5024 58.0867 16.7691C57.62 17.0358 57.2449 17.4192 56.9615 17.9193C56.6947 18.4195 56.5614 18.9946 56.5614 19.6447Z" fill="#1C1C1C"/>
<path d="M67.6682 19.6447C67.6682 18.4445 67.9433 17.3942 68.4934 16.494C69.0602 15.5938 69.8187 14.8937 70.7689 14.3935C71.7358 13.8934 72.8277 13.6434 74.0447 13.6434C75.2616 13.6434 76.3452 13.8934 77.2954 14.3935C78.2623 14.8937 79.0208 15.5938 79.5709 16.494C80.1377 17.3942 80.4211 18.4445 80.4211 19.6447C80.4211 20.8283 80.1377 21.8786 79.5709 22.7955C79.0208 23.6957 78.2623 24.3958 77.2954 24.8959C76.3452 25.3961 75.2616 25.6461 74.0447 25.6461C72.8277 25.6461 71.7358 25.3961 70.7689 24.8959C69.8187 24.3958 69.0602 23.6957 68.4934 22.7955C67.9433 21.8786 67.6682 20.8283 67.6682 19.6447ZM70.969 19.6447C70.969 20.2949 71.1023 20.87 71.3691 21.3701C71.6525 21.8536 72.0275 22.237 72.4943 22.5204C72.9611 22.7871 73.4779 22.9205 74.0447 22.9205C74.6115 22.9205 75.1282 22.7871 75.595 22.5204C76.0618 22.237 76.4285 21.8536 76.6953 21.3701C76.9787 20.87 77.1204 20.2949 77.1204 19.6447C77.1204 18.9946 76.9787 18.4195 76.6953 17.9193C76.4285 17.4192 76.0618 17.0358 75.595 16.7691C75.1282 16.5024 74.6115 16.369 74.0447 16.369C73.4779 16.369 72.9611 16.5024 72.4943 16.7691C72.0275 17.0358 71.6525 17.4192 71.3691 17.9193C71.1023 18.4195 70.969 18.9946 70.969 19.6447Z" fill="#1C1C1C"/>
<path d="M82.851 6.0916C82.851 5.98114 82.9405 5.8916 83.051 5.8916H85.9017C86.0122 5.8916 86.1017 5.98114 86.1017 6.0916V25.1961C86.1017 25.3065 86.0122 25.3961 85.9017 25.3961H83.051C82.9405 25.3961 82.851 25.3065 82.851 25.1961V6.0916Z" fill="#1C1C1C"/>
<path d="M94.2107 17.1637C94.309 17.0317 94.2149 16.8441 94.0503 16.8441H89.2477C89.1372 16.8441 89.0477 16.7546 89.0477 16.6441V14.0934C89.0477 13.983 89.1372 13.8934 89.2477 13.8934H99.509C99.6722 13.8934 99.7667 14.0783 99.6712 14.2105L93.9528 22.1283C93.8573 22.2605 93.9518 22.4454 94.1149 22.4454H98.975C99.0855 22.4454 99.175 22.5349 99.175 22.6454V25.1961C99.175 25.3065 99.0855 25.3961 98.975 25.3961H88.4711C88.3065 25.3961 88.2124 25.2084 88.3107 25.0765L94.2107 17.1637Z" fill="#1C1C1C"/>
<path d="M107.544 17.1637C107.642 17.0317 107.548 16.8441 107.383 16.8441H102.581C102.47 16.8441 102.381 16.7546 102.381 16.6441V14.0934C102.381 13.983 102.47 13.8934 102.581 13.8934H112.842C113.005 13.8934 113.1 14.0783 113.004 14.2105L107.286 22.1283C107.19 22.2605 107.285 22.4454 107.448 22.4454H112.308C112.419 22.4454 112.508 22.5349 112.508 22.6454V25.1961C112.508 25.3065 112.419 25.3961 112.308 25.3961H101.804C101.64 25.3961 101.546 25.2084 101.644 25.0765L107.544 17.1637Z" fill="#1C1C1C"/>
</svg>
